<?xml version="1.0" encoding="utf-8"?>
<!-- Generator: Adobe Illustrator 25.0.0, SVG Export Plug-In . SVG Version: 6.00 Build 0)  -->
<svg version="1.1" id="Camada_1" shape-rendering="auto"
	 xmlns="http://www.w3.org/2000/svg" xmlns:xlink="http://www.w3.org/1999/xlink" x="0px" y="0px" viewBox="0 0 330 330"
	 style="enable-background:new 0 0 330 330;" xml:space="preserve">
<style type="text/css">
	.st0{fill:#FFFFFF;}
	.st1{fill:#359838;}
	.st2{fill:#C81517;}
</style>
<g transform="translate(10,10) scale(0.9393939393939394)">
	<g>
		<rect x="90" y="0" width="10" height="10"/>
		<rect x="100" y="0" width="10" height="10"/>
		<rect x="110" y="0" width="10" height="10"/>
		<rect x="140" y="0" width="10" height="10"/>
		<rect x="170" y="0" width="10" height="10"/>
		<rect x="180" y="0" width="10" height="10"/>
		<rect x="210" y="0" width="10" height="10"/>
		<rect x="220" y="0" width="10" height="10"/>
		<rect x="110" y="10" width="10" height="10"/>
		<rect x="120" y="10" width="10" height="10"/>
		<rect x="140" y="10" width="10" height="10"/>
		<rect x="160" y="10" width="10" height="10"/>
		<rect x="200" y="10" width="10" height="10"/>
		<rect x="210" y="10" width="10" height="10"/>
		<rect x="90" y="20" width="10" height="10"/>
		<rect x="100" y="20" width="10" height="10"/>
		<rect x="110" y="20" width="10" height="10"/>
		<rect x="150" y="20" width="10" height="10"/>
		<rect x="160" y="20" width="10" height="10"/>
		<rect x="210" y="20" width="10" height="10"/>
		<rect x="80" y="30" width="10" height="10"/>
		<rect x="100" y="30" width="10" height="10"/>
		<rect x="110" y="30" width="10" height="10"/>
		<rect x="140" y="30" width="10" height="10"/>
		<rect x="150" y="30" width="10" height="10"/>
		<rect x="160" y="30" width="10" height="10"/>
		<rect x="170" y="30" width="10" height="10"/>
		<rect x="190" y="30" width="10" height="10"/>
		<rect x="200" y="30" width="10" height="10"/>
		<rect x="210" y="30" width="10" height="10"/>
		<rect x="220" y="30" width="10" height="10"/>
		<rect x="80" y="40" width="10" height="10"/>
		<rect x="100" y="40" width="10" height="10"/>
		<rect x="120" y="40" width="10" height="10"/>
		<rect x="130" y="40" width="10" height="10"/>
		<rect x="160" y="40" width="10" height="10"/>
		<rect x="170" y="40" width="10" height="10"/>
		<rect x="180" y="40" width="10" height="10"/>
		<rect x="190" y="40" width="10" height="10"/>
		<rect x="200" y="40" width="10" height="10"/>
		<rect x="230" y="40" width="10" height="10"/>
		<rect x="90" y="50" width="10" height="10"/>
		<rect x="100" y="50" width="10" height="10"/>
		<rect x="130" y="50" width="10" height="10"/>
		<rect x="140" y="50" width="10" height="10"/>
		<rect x="170" y="50" width="10" height="10"/>
		<rect x="200" y="50" width="10" height="10"/>
		<rect x="210" y="50" width="10" height="10"/>
		<rect x="220" y="50" width="10" height="10"/>
		<rect x="240" y="50" width="10" height="10"/>
		<rect x="80" y="60" width="10" height="10"/>
		<rect x="100" y="60" width="10" height="10"/>
		<rect x="120" y="60" width="10" height="10"/>
		<rect x="140" y="60" width="10" height="10"/>
		<rect x="160" y="60" width="10" height="10"/>
		<rect x="180" y="60" width="10" height="10"/>
		<rect x="200" y="60" width="10" height="10"/>
		<rect x="220" y="60" width="10" height="10"/>
		<rect x="240" y="60" width="10" height="10"/>
		<rect x="90" y="70" width="10" height="10"/>
		<rect x="120" y="70" width="10" height="10"/>
		<rect x="130" y="70" width="10" height="10"/>
		<rect x="160" y="70" width="10" height="10"/>
		<rect x="180" y="70" width="10" height="10"/>
		<rect x="190" y="70" width="10" height="10"/>
		<rect x="240" y="70" width="10" height="10"/>
		<rect x="0" y="80" width="10" height="10"/>
		<rect x="10" y="80" width="10" height="10"/>
		<rect x="50" y="80" width="10" height="10"/>
		<rect x="60" y="80" width="10" height="10"/>
		<rect x="70" y="80" width="10" height="10"/>
		<rect x="90" y="80" width="10" height="10"/>
		<rect x="100" y="80" width="10" height="10"/>
		<rect x="120" y="80" width="10" height="10"/>
		<rect x="140" y="80" width="10" height="10"/>
		<rect x="150" y="80" width="10" height="10"/>
		<rect x="160" y="80" width="10" height="10"/>
		<rect x="170" y="80" width="10" height="10"/>
		<rect x="220" y="80" width="10" height="10"/>
		<rect x="230" y="80" width="10" height="10"/>
		<rect x="240" y="80" width="10" height="10"/>
		<rect x="280" y="80" width="10" height="10"/>
		<rect x="290" y="80" width="10" height="10"/>
		<rect x="0" y="90" width="10" height="10"/>
		<rect x="40" y="90" width="10" height="10"/>
		<rect x="50" y="90" width="10" height="10"/>
		<rect x="100" y="90" width="10" height="10"/>
		<rect x="140" y="90" width="10" height="10"/>
		<rect x="150" y="90" width="10" height="10"/>
		<rect x="180" y="90" width="10" height="10"/>
		<rect x="190" y="90" width="10" height="10"/>
		<rect x="210" y="90" width="10" height="10"/>
		<rect x="220" y="90" width="10" height="10"/>
		<rect x="230" y="90" width="10" height="10"/>
		<rect x="270" y="90" width="10" height="10"/>
		<rect x="280" y="90" width="10" height="10"/>
		<rect x="300" y="90" width="10" height="10"/>
		<rect x="310" y="90" width="10" height="10"/>
		<rect x="0" y="100" width="10" height="10"/>
		<rect x="20" y="100" width="10" height="10"/>
		<rect x="30" y="100" width="10" height="10"/>
		<rect x="60" y="100" width="10" height="10"/>
		<rect x="80" y="100" width="10" height="10"/>
		<rect x="90" y="100" width="10" height="10"/>
		<rect x="110" y="100" width="10" height="10"/>
		<rect x="120" y="100" width="10" height="10"/>
		<rect x="150" y="100" width="10" height="10"/>
		<rect x="170" y="100" width="10" height="10"/>
		<rect x="180" y="100" width="10" height="10"/>
		<rect x="200" y="100" width="10" height="10"/>
		<rect x="210" y="100" width="10" height="10"/>
		<rect x="240" y="100" width="10" height="10"/>
		<rect x="250" y="100" width="10" height="10"/>
		<rect x="260" y="100" width="10" height="10"/>
		<rect x="270" y="100" width="10" height="10"/>
		<rect x="280" y="100" width="10" height="10"/>
		<rect x="290" y="100" width="10" height="10"/>
		<rect x="310" y="100" width="10" height="10"/>
		<rect x="40" y="110" width="10" height="10"/>
		<rect x="80" y="110" width="10" height="10"/>
		<rect x="100" y="110" width="10" height="10"/>
		<rect x="110" y="110" width="10" height="10"/>
		<rect x="140" y="110" width="10" height="10"/>
		<rect x="200" y="110" width="10" height="10"/>
		<rect x="220" y="110" width="10" height="10"/>
		<rect x="250" y="110" width="10" height="10"/>
		<rect x="260" y="110" width="10" height="10"/>
		<rect x="300" y="110" width="10" height="10"/>
		<rect x="0" y="120" width="10" height="10"/>
		<rect x="20" y="120" width="10" height="10"/>
		<rect x="60" y="120" width="10" height="10"/>
		<rect x="80" y="120" width="10" height="10"/>
		<rect x="90" y="120" width="10" height="10"/>
		<rect x="100" y="120" width="10" height="10"/>
		<rect x="130" y="120" width="10" height="10"/>
		<rect x="140" y="120" width="10" height="10"/>
		<rect x="160" y="120" width="10" height="10"/>
		<rect x="200" y="120" width="10" height="10"/>
		<rect x="230" y="120" width="10" height="10"/>
		<rect x="260" y="120" width="10" height="10"/>
		<rect x="310" y="120" width="10" height="10"/>
		<rect x="320" y="120" width="10" height="10"/>
		<rect x="0" y="130" width="10" height="10"/>
		<rect x="10" y="130" width="10" height="10"/>
		<rect x="30" y="130" width="10" height="10"/>
		<rect x="40" y="130" width="10" height="10"/>
		<rect x="50" y="130" width="10" height="10"/>
		<rect x="80" y="130" width="10" height="10"/>
		<rect x="90" y="130" width="10" height="10"/>
		<rect x="100" y="130" width="10" height="10"/>
		<rect x="120" y="130" width="10" height="10"/>
		<rect x="130" y="130" width="10" height="10"/>
		<rect x="140" y="130" width="10" height="10"/>
		<rect x="150" y="130" width="10" height="10"/>
		<rect x="160" y="130" width="10" height="10"/>
		<rect x="170" y="130" width="10" height="10"/>
		<rect x="180" y="130" width="10" height="10"/>
		<rect x="190" y="130" width="10" height="10"/>
		<rect x="210" y="130" width="10" height="10"/>
		<rect x="230" y="130" width="10" height="10"/>
		<rect x="260" y="130" width="10" height="10"/>
		<rect x="270" y="130" width="10" height="10"/>
		<rect x="310" y="130" width="10" height="10"/>
		<rect x="320" y="130" width="10" height="10"/>
		<rect x="0" y="140" width="10" height="10"/>
		<rect x="10" y="140" width="10" height="10"/>
		<rect x="20" y="140" width="10" height="10"/>
		<rect x="50" y="140" width="10" height="10"/>
		<rect x="60" y="140" width="10" height="10"/>
		<rect x="100" y="140" width="10" height="10"/>
		<rect x="130" y="140" width="10" height="10"/>
		<rect x="140" y="140" width="10" height="10"/>
		<rect x="150" y="140" width="10" height="10"/>
		<rect x="180" y="140" width="10" height="10"/>
		<rect x="200" y="140" width="10" height="10"/>
		<rect x="220" y="140" width="10" height="10"/>
		<rect x="280" y="140" width="10" height="10"/>
		<rect x="310" y="140" width="10" height="10"/>
		<rect x="0" y="150" width="10" height="10"/>
		<rect x="10" y="150" width="10" height="10"/>
		<rect x="20" y="150" width="10" height="10"/>
		<rect x="70" y="150" width="10" height="10"/>
		<rect x="80" y="150" width="10" height="10"/>
		<rect x="100" y="150" width="10" height="10"/>
		<rect x="120" y="150" width="10" height="10"/>
		<rect x="130" y="150" width="10" height="10"/>
		<rect x="140" y="150" width="10" height="10"/>
		<rect x="150" y="150" width="10" height="10"/>
		<rect x="240" y="150" width="10" height="10"/>
		<rect x="250" y="150" width="10" height="10"/>
		<rect x="270" y="150" width="10" height="10"/>
		<rect x="300" y="150" width="10" height="10"/>
		<rect x="320" y="150" width="10" height="10"/>
		<rect x="0" y="160" width="10" height="10"/>
		<rect x="10" y="160" width="10" height="10"/>
		<rect x="30" y="160" width="10" height="10"/>
		<rect x="60" y="160" width="10" height="10"/>
		<rect x="120" y="160" width="10" height="10"/>
		<rect x="140" y="160" width="10" height="10"/>
		<rect x="170" y="160" width="10" height="10"/>
		<rect x="230" y="160" width="10" height="10"/>
		<rect x="240" y="160" width="10" height="10"/>
		<rect x="250" y="160" width="10" height="10"/>
		<rect x="270" y="160" width="10" height="10"/>
		<rect x="280" y="160" width="10" height="10"/>
		<rect x="310" y="160" width="10" height="10"/>
		<rect x="10" y="170" width="10" height="10"/>
		<rect x="30" y="170" width="10" height="10"/>
		<rect x="40" y="170" width="10" height="10"/>
		<rect x="50" y="170" width="10" height="10"/>
		<rect x="70" y="170" width="10" height="10"/>
		<rect x="80" y="170" width="10" height="10"/>
		<rect x="100" y="170" width="10" height="10"/>
		<rect x="150" y="170" width="10" height="10"/>
		<rect x="180" y="170" width="10" height="10"/>
		<rect x="190" y="170" width="10" height="10"/>
		<rect x="200" y="170" width="10" height="10"/>
		<rect x="210" y="170" width="10" height="10"/>
		<rect x="230" y="170" width="10" height="10"/>
		<rect x="260" y="170" width="10" height="10"/>
		<rect x="270" y="170" width="10" height="10"/>
		<rect x="290" y="170" width="10" height="10"/>
		<rect x="310" y="170" width="10" height="10"/>
		<rect x="320" y="170" width="10" height="10"/>
		<rect x="0" y="180" width="10" height="10"/>
		<rect x="10" y="180" width="10" height="10"/>
		<rect x="20" y="180" width="10" height="10"/>
		<rect x="60" y="180" width="10" height="10"/>
		<rect x="80" y="180" width="10" height="10"/>
		<rect x="120" y="180" width="10" height="10"/>
		<rect x="130" y="180" width="10" height="10"/>
		<rect x="140" y="180" width="10" height="10"/>
		<rect x="150" y="180" width="10" height="10"/>
		<rect x="160" y="180" width="10" height="10"/>
		<rect x="170" y="180" width="10" height="10"/>
		<rect x="180" y="180" width="10" height="10"/>
		<rect x="190" y="180" width="10" height="10"/>
		<rect x="200" y="180" width="10" height="10"/>
		<rect x="230" y="180" width="10" height="10"/>
		<rect x="250" y="180" width="10" height="10"/>
		<rect x="270" y="180" width="10" height="10"/>
		<rect x="280" y="180" width="10" height="10"/>
		<rect x="320" y="180" width="10" height="10"/>
		<rect x="0" y="190" width="10" height="10"/>
		<rect x="20" y="190" width="10" height="10"/>
		<rect x="40" y="190" width="10" height="10"/>
		<rect x="50" y="190" width="10" height="10"/>
		<rect x="90" y="190" width="10" height="10"/>
		<rect x="100" y="190" width="10" height="10"/>
		<rect x="110" y="190" width="10" height="10"/>
		<rect x="140" y="190" width="10" height="10"/>
		<rect x="200" y="190" width="10" height="10"/>
		<rect x="220" y="190" width="10" height="10"/>
		<rect x="230" y="190" width="10" height="10"/>
		<rect x="270" y="190" width="10" height="10"/>
		<rect x="300" y="190" width="10" height="10"/>
		<rect x="0" y="200" width="10" height="10"/>
		<rect x="20" y="200" width="10" height="10"/>
		<rect x="40" y="200" width="10" height="10"/>
		<rect x="50" y="200" width="10" height="10"/>
		<rect x="60" y="200" width="10" height="10"/>
		<rect x="70" y="200" width="10" height="10"/>
		<rect x="80" y="200" width="10" height="10"/>
		<rect x="100" y="200" width="10" height="10"/>
		<rect x="110" y="200" width="10" height="10"/>
		<rect x="160" y="200" width="10" height="10"/>
		<rect x="170" y="200" width="10" height="10"/>
		<rect x="220" y="200" width="10" height="10"/>
		<rect x="240" y="200" width="10" height="10"/>
		<rect x="250" y="200" width="10" height="10"/>
		<rect x="280" y="200" width="10" height="10"/>
		<rect x="310" y="200" width="10" height="10"/>
		<rect x="0" y="210" width="10" height="10"/>
		<rect x="20" y="210" width="10" height="10"/>
		<rect x="30" y="210" width="10" height="10"/>
		<rect x="90" y="210" width="10" height="10"/>
		<rect x="100" y="210" width="10" height="10"/>
		<rect x="120" y="210" width="10" height="10"/>
		<rect x="130" y="210" width="10" height="10"/>
		<rect x="150" y="210" width="10" height="10"/>
		<rect x="190" y="210" width="10" height="10"/>
		<rect x="220" y="210" width="10" height="10"/>
		<rect x="230" y="210" width="10" height="10"/>
		<rect x="270" y="210" width="10" height="10"/>
		<rect x="280" y="210" width="10" height="10"/>
		<rect x="290" y="210" width="10" height="10"/>
		<rect x="310" y="210" width="10" height="10"/>
		<rect x="0" y="220" width="10" height="10"/>
		<rect x="20" y="220" width="10" height="10"/>
		<rect x="30" y="220" width="10" height="10"/>
		<rect x="50" y="220" width="10" height="10"/>
		<rect x="60" y="220" width="10" height="10"/>
		<rect x="80" y="220" width="10" height="10"/>
		<rect x="90" y="220" width="10" height="10"/>
		<rect x="130" y="220" width="10" height="10"/>
		<rect x="140" y="220" width="10" height="10"/>
		<rect x="150" y="220" width="10" height="10"/>
		<rect x="160" y="220" width="10" height="10"/>
		<rect x="170" y="220" width="10" height="10"/>
		<rect x="180" y="220" width="10" height="10"/>
		<rect x="200" y="220" width="10" height="10"/>
		<rect x="220" y="220" width="10" height="10"/>
		<rect x="240" y="220" width="10" height="10"/>
		<rect x="290" y="220" width="10" height="10"/>
		<rect x="310" y="220" width="10" height="10"/>
		<rect x="0" y="230" width="10" height="10"/>
		<rect x="30" y="230" width="10" height="10"/>
		<rect x="50" y="230" width="10" height="10"/>
		<rect x="70" y="230" width="10" height="10"/>
		<rect x="80" y="230" width="10" height="10"/>
		<rect x="120" y="230" width="10" height="10"/>
		<rect x="130" y="230" width="10" height="10"/>
		<rect x="160" y="230" width="10" height="10"/>
		<rect x="200" y="230" width="10" height="10"/>
		<rect x="230" y="230" width="10" height="10"/>
		<rect x="250" y="230" width="10" height="10"/>
		<rect x="290" y="230" width="10" height="10"/>
		<rect x="300" y="230" width="10" height="10"/>
		<rect x="0" y="240" width="10" height="10"/>
		<rect x="10" y="240" width="10" height="10"/>
		<rect x="40" y="240" width="10" height="10"/>
		<rect x="60" y="240" width="10" height="10"/>
		<rect x="70" y="240" width="10" height="10"/>
		<rect x="110" y="240" width="10" height="10"/>
		<rect x="120" y="240" width="10" height="10"/>
		<rect x="130" y="240" width="10" height="10"/>
		<rect x="150" y="240" width="10" height="10"/>
		<rect x="160" y="240" width="10" height="10"/>
		<rect x="180" y="240" width="10" height="10"/>
		<rect x="200" y="240" width="10" height="10"/>
		<rect x="240" y="240" width="10" height="10"/>
		<rect x="250" y="240" width="10" height="10"/>
		<rect x="260" y="240" width="10" height="10"/>
		<rect x="270" y="240" width="10" height="10"/>
		<rect x="280" y="240" width="10" height="10"/>
		<rect x="310" y="240" width="10" height="10"/>
		<rect x="80" y="250" width="10" height="10"/>
		<rect x="150" y="250" width="10" height="10"/>
		<rect x="160" y="250" width="10" height="10"/>
		<rect x="170" y="250" width="10" height="10"/>
		<rect x="180" y="250" width="10" height="10"/>
		<rect x="190" y="250" width="10" height="10"/>
		<rect x="240" y="250" width="10" height="10"/>
		<rect x="280" y="250" width="10" height="10"/>
		<rect x="300" y="250" width="10" height="10"/>
		<rect x="320" y="250" width="10" height="10"/>
		<rect x="80" y="260" width="10" height="10"/>
		<rect x="110" y="260" width="10" height="10"/>
		<rect x="120" y="260" width="10" height="10"/>
		<rect x="150" y="260" width="10" height="10"/>
		<rect x="170" y="260" width="10" height="10"/>
		<rect x="200" y="260" width="10" height="10"/>
		<rect x="210" y="260" width="10" height="10"/>
		<rect x="220" y="260" width="10" height="10"/>
		<rect x="230" y="260" width="10" height="10"/>
		<rect x="240" y="260" width="10" height="10"/>
		<rect x="260" y="260" width="10" height="10"/>
		<rect x="280" y="260" width="10" height="10"/>
		<rect x="310" y="260" width="10" height="10"/>
		<rect x="80" y="270" width="10" height="10"/>
		<rect x="110" y="270" width="10" height="10"/>
		<rect x="200" y="270" width="10" height="10"/>
		<rect x="240" y="270" width="10" height="10"/>
		<rect x="280" y="270" width="10" height="10"/>
		<rect x="290" y="270" width="10" height="10"/>
		<rect x="300" y="270" width="10" height="10"/>
		<rect x="320" y="270" width="10" height="10"/>
		<rect x="90" y="280" width="10" height="10"/>
		<rect x="110" y="280" width="10" height="10"/>
		<rect x="150" y="280" width="10" height="10"/>
		<rect x="170" y="280" width="10" height="10"/>
		<rect x="220" y="280" width="10" height="10"/>
		<rect x="240" y="280" width="10" height="10"/>
		<rect x="250" y="280" width="10" height="10"/>
		<rect x="260" y="280" width="10" height="10"/>
		<rect x="270" y="280" width="10" height="10"/>
		<rect x="280" y="280" width="10" height="10"/>
		<rect x="310" y="280" width="10" height="10"/>
		<rect x="320" y="280" width="10" height="10"/>
		<rect x="90" y="290" width="10" height="10"/>
		<rect x="100" y="290" width="10" height="10"/>
		<rect x="120" y="290" width="10" height="10"/>
		<rect x="130" y="290" width="10" height="10"/>
		<rect x="140" y="290" width="10" height="10"/>
		<rect x="150" y="290" width="10" height="10"/>
		<rect x="160" y="290" width="10" height="10"/>
		<rect x="170" y="290" width="10" height="10"/>
		<rect x="180" y="290" width="10" height="10"/>
		<rect x="190" y="290" width="10" height="10"/>
		<rect x="200" y="290" width="10" height="10"/>
		<rect x="210" y="290" width="10" height="10"/>
		<rect x="230" y="290" width="10" height="10"/>
		<rect x="240" y="290" width="10" height="10"/>
		<rect x="280" y="290" width="10" height="10"/>
		<rect x="290" y="290" width="10" height="10"/>
		<rect x="300" y="290" width="10" height="10"/>
		<rect x="310" y="290" width="10" height="10"/>
		<rect x="320" y="290" width="10" height="10"/>
		<rect x="90" y="300" width="10" height="10"/>
		<rect x="100" y="300" width="10" height="10"/>
		<rect x="110" y="300" width="10" height="10"/>
		<rect x="150" y="300" width="10" height="10"/>
		<rect x="160" y="300" width="10" height="10"/>
		<rect x="170" y="300" width="10" height="10"/>
		<rect x="180" y="300" width="10" height="10"/>
		<rect x="190" y="300" width="10" height="10"/>
		<rect x="200" y="300" width="10" height="10"/>
		<rect x="210" y="300" width="10" height="10"/>
		<rect x="220" y="300" width="10" height="10"/>
		<rect x="230" y="300" width="10" height="10"/>
		<rect x="240" y="300" width="10" height="10"/>
		<rect x="280" y="300" width="10" height="10"/>
		<rect x="300" y="300" width="10" height="10"/>
		<rect x="310" y="300" width="10" height="10"/>
		<rect x="320" y="300" width="10" height="10"/>
		<rect x="80" y="310" width="10" height="10"/>
		<rect x="100" y="310" width="10" height="10"/>
		<rect x="120" y="310" width="10" height="10"/>
		<rect x="130" y="310" width="10" height="10"/>
		<rect x="150" y="310" width="10" height="10"/>
		<rect x="160" y="310" width="10" height="10"/>
		<rect x="190" y="310" width="10" height="10"/>
		<rect x="220" y="310" width="10" height="10"/>
		<rect x="230" y="310" width="10" height="10"/>
		<rect x="280" y="310" width="10" height="10"/>
		<rect x="290" y="310" width="10" height="10"/>
		<rect x="300" y="310" width="10" height="10"/>
		<rect x="80" y="320" width="10" height="10"/>
		<rect x="90" y="320" width="10" height="10"/>
		<rect x="100" y="320" width="10" height="10"/>
		<rect x="120" y="320" width="10" height="10"/>
		<rect x="140" y="320" width="10" height="10"/>
		<rect x="170" y="320" width="10" height="10"/>
		<rect x="200" y="320" width="10" height="10"/>
		<rect x="220" y="320" width="10" height="10"/>
		<rect x="240" y="320" width="10" height="10"/>
		<rect x="260" y="320" width="10" height="10"/>
		<rect x="280" y="320" width="10" height="10"/>
		<rect x="310" y="320" width="10" height="10"/>
	</g>
	<g>
		<path d="M0,0v70h70V0H0z M60,60H10V10h50V60z"/>
	</g>
	<g>
		<rect x="20" y="20" width="30" height="30"/>
	</g>
	<g>
		<path d="M0,260v70h70v-70H0z M60,320H10v-50h50V320z"/>
	</g>
	<g>
		<rect x="20" y="280" width="30" height="30"/>
	</g>
	<g>
		<path d="M260,0v70h70V0H260z M320,60h-50V10h50V60z"/>
	</g>
	<g>
		<rect x="280" y="20" width="30" height="30"/>
	</g>
</g>
<g>
	<rect x="330.4" y="0" class="st0" width="330" height="330"/>
	<g transform="translate(10,10) scale(0.9393939393939394)">
		<g>
			<rect x="441.7" y="0" width="10" height="10"/>
			<rect x="451.7" y="0" width="10" height="10"/>
			<rect x="461.7" y="0" width="10" height="10"/>
			<rect x="491.7" y="0" width="10" height="10"/>
			<rect x="521.7" y="0" width="10" height="10"/>
			<rect x="531.7" y="0" width="10" height="10"/>
			<rect x="561.7" y="0" width="10" height="10"/>
			<rect x="571.7" y="0" width="10" height="10"/>
			<rect x="461.7" y="10" width="10" height="10"/>
			<rect x="471.7" y="10" width="10" height="10"/>
			<rect x="491.7" y="10" width="10" height="10"/>
			<rect x="511.7" y="10" width="10" height="10"/>
			<rect x="551.7" y="10" width="10" height="10"/>
			<rect x="561.7" y="10" width="10" height="10"/>
			<rect x="441.7" y="20" width="10" height="10"/>
			<rect x="451.7" y="20" width="10" height="10"/>
			<rect x="461.7" y="20" width="10" height="10"/>
			<rect x="501.7" y="20" width="10" height="10"/>
			<rect x="511.7" y="20" width="10" height="10"/>
			<rect x="561.7" y="20" width="10" height="10"/>
			<rect x="431.7" y="30" width="10" height="10"/>
			<rect x="451.7" y="30" width="10" height="10"/>
			<rect x="461.7" y="30" width="10" height="10"/>
			<rect x="491.7" y="30" width="10" height="10"/>
			<rect x="501.7" y="30" width="10" height="10"/>
			<rect x="511.7" y="30" width="10" height="10"/>
			<rect x="521.7" y="30" width="10" height="10"/>
			<rect x="541.7" y="30" width="10" height="10"/>
			<rect x="551.7" y="30" width="10" height="10"/>
			<rect x="561.7" y="30" width="10" height="10"/>
			<rect x="571.7" y="30" width="10" height="10"/>
			<rect x="431.7" y="40" width="10" height="10"/>
			<rect x="451.7" y="40" width="10" height="10"/>
			<rect x="471.7" y="40" width="10" height="10"/>
			<rect x="481.7" y="40" width="10" height="10"/>
			<rect x="511.7" y="40" width="10" height="10"/>
			<rect x="521.7" y="40" width="10" height="10"/>
			<rect x="531.7" y="40" width="10" height="10"/>
			<rect x="541.7" y="40" width="10" height="10"/>
			<rect x="551.7" y="40" width="10" height="10"/>
			<rect x="581.7" y="40" width="10" height="10"/>
			<rect x="441.7" y="50" width="10" height="10"/>
			<rect x="451.7" y="50" width="10" height="10"/>
			<rect x="481.7" y="50" width="10" height="10"/>
			<rect x="491.7" y="50" width="10" height="10"/>
			<rect x="521.7" y="50" width="10" height="10"/>
			<rect x="551.7" y="50" width="10" height="10"/>
			<rect x="561.7" y="50" width="10" height="10"/>
			<rect x="571.7" y="50" width="10" height="10"/>
			<rect x="591.7" y="50" width="10" height="10"/>
			<rect x="431.7" y="60" width="10" height="10"/>
			<rect x="451.7" y="60" width="10" height="10"/>
			<rect x="471.7" y="60" width="10" height="10"/>
			<rect x="491.7" y="60" width="10" height="10"/>
			<rect x="511.7" y="60" width="10" height="10"/>
			<rect x="531.7" y="60" width="10" height="10"/>
			<rect x="551.7" y="60" width="10" height="10"/>
			<rect x="571.7" y="60" width="10" height="10"/>
			<rect x="591.7" y="60" width="10" height="10"/>
			<rect x="441.7" y="70" width="10" height="10"/>
			<rect x="471.7" y="70" width="10" height="10"/>
			<rect x="481.7" y="70" width="10" height="10"/>
			<rect x="511.7" y="70" width="10" height="10"/>
			<rect x="531.7" y="70" width="10" height="10"/>
			<rect x="541.7" y="70" width="10" height="10"/>
			<rect x="591.7" y="70" width="10" height="10"/>
			<rect x="351.7" y="80" width="10" height="10"/>
			<rect x="361.7" y="80" width="10" height="10"/>
			<rect x="401.7" y="80" width="10" height="10"/>
			<rect x="411.7" y="80" width="10" height="10"/>
			<rect x="421.7" y="80" width="10" height="10"/>
			<rect x="441.7" y="80" width="10" height="10"/>
			<rect x="451.7" y="80" width="10" height="10"/>
			<rect x="471.7" y="80" width="10" height="10"/>
			<rect x="491.7" y="80" width="10" height="10"/>
			<rect x="501.7" y="80" width="10" height="10"/>
			<rect x="511.7" y="80" width="10" height="10"/>
			<rect x="521.7" y="80" width="10" height="10"/>
			<rect x="571.7" y="80" width="10" height="10"/>
			<rect x="581.7" y="80" width="10" height="10"/>
			<rect x="591.7" y="80" width="10" height="10"/>
			<rect x="631.7" y="80" width="10" height="10"/>
			<rect x="641.7" y="80" width="10" height="10"/>
			<rect x="351.7" y="90" width="10" height="10"/>
			<rect x="391.7" y="90" width="10" height="10"/>
			<rect x="401.7" y="90" width="10" height="10"/>
			<rect x="451.7" y="90" width="10" height="10"/>
			<rect x="491.7" y="90" width="10" height="10"/>
			<rect x="501.7" y="90" width="10" height="10"/>
			<rect x="531.7" y="90" width="10" height="10"/>
			<rect x="541.7" y="90" width="10" height="10"/>
			<rect x="561.7" y="90" width="10" height="10"/>
			<rect x="571.7" y="90" width="10" height="10"/>
			<rect x="581.7" y="90" width="10" height="10"/>
			<rect x="621.7" y="90" width="10" height="10"/>
			<rect x="631.7" y="90" width="10" height="10"/>
			<rect x="651.7" y="90" width="10" height="10"/>
			<rect x="661.7" y="90" width="10" height="10"/>
			<rect x="351.7" y="100" width="10" height="10"/>
			<rect x="371.7" y="100" width="10" height="10"/>
			<rect x="381.7" y="100" width="10" height="10"/>
			<rect x="411.7" y="100" width="10" height="10"/>
			<rect x="431.7" y="100" width="10" height="10"/>
			<rect x="441.7" y="100" width="10" height="10"/>
			<rect x="461.7" y="100" width="10" height="10"/>
			<rect x="471.7" y="100" width="10" height="10"/>
			<rect x="501.7" y="100" width="10" height="10"/>
			<rect x="521.7" y="100" width="10" height="10"/>
			<rect x="531.7" y="100" width="10" height="10"/>
			<rect x="551.7" y="100" width="10" height="10"/>
			<rect x="561.7" y="100" width="10" height="10"/>
			<rect x="591.7" y="100" width="10" height="10"/>
			<rect x="601.7" y="100" width="10" height="10"/>
			<rect x="611.7" y="100" width="10" height="10"/>
			<rect x="621.7" y="100" width="10" height="10"/>
			<rect x="631.7" y="100" width="10" height="10"/>
			<rect x="641.7" y="100" width="10" height="10"/>
			<rect x="661.7" y="100" width="10" height="10"/>
			<rect x="391.7" y="110" width="10" height="10"/>
			<rect x="431.7" y="110" width="10" height="10"/>
			<rect x="451.7" y="110" width="10" height="10"/>
			<rect x="461.7" y="110" width="10" height="10"/>
			<rect x="491.7" y="110" width="10" height="10"/>
			<rect x="551.7" y="110" width="10" height="10"/>
			<rect x="571.7" y="110" width="10" height="10"/>
			<rect x="601.7" y="110" width="10" height="10"/>
			<rect x="611.7" y="110" width="10" height="10"/>
			<rect x="651.7" y="110" width="10" height="10"/>
			<rect x="351.7" y="120" width="10" height="10"/>
			<rect x="371.7" y="120" width="10" height="10"/>
			<rect x="411.7" y="120" width="10" height="10"/>
			<rect x="431.7" y="120" width="10" height="10"/>
			<rect x="441.7" y="120" width="10" height="10"/>
			<rect x="451.7" y="120" width="10" height="10"/>
			<rect x="481.7" y="120" width="10" height="10"/>
			<rect x="491.7" y="120" width="10" height="10"/>
			<rect x="511.7" y="120" width="10" height="10"/>
			<rect x="551.7" y="120" width="10" height="10"/>
			<rect x="581.7" y="120" width="10" height="10"/>
			<rect x="611.7" y="120" width="10" height="10"/>
			<rect x="661.7" y="120" width="10" height="10"/>
			<rect x="671.7" y="120" width="10" height="10"/>
			<rect x="351.7" y="130" width="10" height="10"/>
			<rect x="361.7" y="130" width="10" height="10"/>
			<rect x="381.7" y="130" width="10" height="10"/>
			<rect x="391.7" y="130" width="10" height="10"/>
			<rect x="401.7" y="130" width="10" height="10"/>
			<rect x="431.7" y="130" width="10" height="10"/>
			<rect x="441.7" y="130" width="10" height="10"/>
			<rect x="451.7" y="130" width="10" height="10"/>
			<rect x="471.7" y="130" width="10" height="10"/>
			<rect x="481.7" y="130" width="10" height="10"/>
			<rect x="491.7" y="130" width="10" height="10"/>
			<rect x="501.7" y="130" width="10" height="10"/>
			<rect x="511.7" y="130" width="10" height="10"/>
			<rect x="521.7" y="130" width="10" height="10"/>
			<rect x="531.7" y="130" width="10" height="10"/>
			<rect x="541.7" y="130" width="10" height="10"/>
			<rect x="561.7" y="130" width="10" height="10"/>
			<rect x="581.7" y="130" width="10" height="10"/>
			<rect x="611.7" y="130" width="10" height="10"/>
			<rect x="621.7" y="130" width="10" height="10"/>
			<rect x="661.7" y="130" width="10" height="10"/>
			<rect x="671.7" y="130" width="10" height="10"/>
			<rect x="351.7" y="140" width="10" height="10"/>
			<rect x="361.7" y="140" width="10" height="10"/>
			<rect x="371.7" y="140" width="10" height="10"/>
			<rect x="401.7" y="140" width="10" height="10"/>
			<rect x="411.7" y="140" width="10" height="10"/>
			<rect x="451.7" y="140" width="10" height="10"/>
			<rect x="481.7" y="140" width="10" height="10"/>
			<rect x="491.7" y="140" width="10" height="10"/>
			<rect x="501.7" y="140" width="10" height="10"/>
			<rect x="531.7" y="140" width="10" height="10"/>
			<rect x="551.7" y="140" width="10" height="10"/>
			<rect x="571.7" y="140" width="10" height="10"/>
			<rect x="631.7" y="140" width="10" height="10"/>
			<rect x="661.7" y="140" width="10" height="10"/>
			<rect x="351.7" y="150" width="10" height="10"/>
			<rect x="361.7" y="150" width="10" height="10"/>
			<rect x="371.7" y="150" width="10" height="10"/>
			<rect x="421.7" y="150" width="10" height="10"/>
			<rect x="431.7" y="150" width="10" height="10"/>
			<rect x="451.7" y="150" width="10" height="10"/>
			<rect x="471.7" y="150" width="10" height="10"/>
			<rect x="481.7" y="150" width="10" height="10"/>
			<rect x="491.7" y="150" width="10" height="10"/>
			<rect x="501.7" y="150" width="10" height="10"/>
			<rect x="591.7" y="150" width="10" height="10"/>
			<rect x="601.7" y="150" width="10" height="10"/>
			<rect x="621.7" y="150" width="10" height="10"/>
			<rect x="651.7" y="150" width="10" height="10"/>
			<rect x="671.7" y="150" width="10" height="10"/>
			<rect x="351.7" y="160" width="10" height="10"/>
			<rect x="361.7" y="160" width="10" height="10"/>
			<rect x="381.7" y="160" width="10" height="10"/>
			<rect x="411.7" y="160" width="10" height="10"/>
			<rect x="471.7" y="160" width="10" height="10"/>
			<rect x="491.7" y="160" width="10" height="10"/>
			<rect x="521.7" y="160" width="10" height="10"/>
			<rect x="581.7" y="160" width="10" height="10"/>
			<rect x="591.7" y="160" width="10" height="10"/>
			<rect x="601.7" y="160" width="10" height="10"/>
			<rect x="621.7" y="160" width="10" height="10"/>
			<rect x="631.7" y="160" width="10" height="10"/>
			<rect x="661.7" y="160" width="10" height="10"/>
			<rect x="361.7" y="170" width="10" height="10"/>
			<rect x="381.7" y="170" width="10" height="10"/>
			<rect x="391.7" y="170" width="10" height="10"/>
			<rect x="401.7" y="170" width="10" height="10"/>
			<rect x="421.7" y="170" width="10" height="10"/>
			<rect x="431.7" y="170" width="10" height="10"/>
			<rect x="451.7" y="170" width="10" height="10"/>
			<rect x="501.7" y="170" width="10" height="10"/>
			<rect x="531.7" y="170" width="10" height="10"/>
			<rect x="541.7" y="170" width="10" height="10"/>
			<rect x="551.7" y="170" width="10" height="10"/>
			<rect x="561.7" y="170" width="10" height="10"/>
			<rect x="581.7" y="170" width="10" height="10"/>
			<rect x="611.7" y="170" width="10" height="10"/>
			<rect x="621.7" y="170" width="10" height="10"/>
			<rect x="641.7" y="170" width="10" height="10"/>
			<rect x="661.7" y="170" width="10" height="10"/>
			<rect x="671.7" y="170" width="10" height="10"/>
			<rect x="351.7" y="180" width="10" height="10"/>
			<rect x="361.7" y="180" width="10" height="10"/>
			<rect x="371.7" y="180" width="10" height="10"/>
			<rect x="411.7" y="180" width="10" height="10"/>
			<rect x="431.7" y="180" width="10" height="10"/>
			<rect x="471.7" y="180" width="10" height="10"/>
			<rect x="481.7" y="180" width="10" height="10"/>
			<rect x="491.7" y="180" width="10" height="10"/>
			<rect x="501.7" y="180" width="10" height="10"/>
			<rect x="511.7" y="180" width="10" height="10"/>
			<rect x="521.7" y="180" width="10" height="10"/>
			<rect x="531.7" y="180" width="10" height="10"/>
			<rect x="541.7" y="180" width="10" height="10"/>
			<rect x="551.7" y="180" width="10" height="10"/>
			<rect x="581.7" y="180" width="10" height="10"/>
			<rect x="601.7" y="180" width="10" height="10"/>
			<rect x="621.7" y="180" width="10" height="10"/>
			<rect x="631.7" y="180" width="10" height="10"/>
			<rect x="671.7" y="180" width="10" height="10"/>
			<rect x="351.7" y="190" width="10" height="10"/>
			<rect x="371.7" y="190" width="10" height="10"/>
			<rect x="391.7" y="190" width="10" height="10"/>
			<rect x="401.7" y="190" width="10" height="10"/>
			<rect x="441.7" y="190" width="10" height="10"/>
			<rect x="451.7" y="190" width="10" height="10"/>
			<rect x="461.7" y="190" width="10" height="10"/>
			<rect x="491.7" y="190" width="10" height="10"/>
			<rect x="551.7" y="190" width="10" height="10"/>
			<rect x="571.7" y="190" width="10" height="10"/>
			<rect x="581.7" y="190" width="10" height="10"/>
			<rect x="621.7" y="190" width="10" height="10"/>
			<rect x="651.7" y="190" width="10" height="10"/>
			<rect x="351.7" y="200" width="10" height="10"/>
			<rect x="371.7" y="200" width="10" height="10"/>
			<rect x="391.7" y="200" width="10" height="10"/>
			<rect x="401.7" y="200" width="10" height="10"/>
			<rect x="411.7" y="200" width="10" height="10"/>
			<rect x="421.7" y="200" width="10" height="10"/>
			<rect x="431.7" y="200" width="10" height="10"/>
			<rect x="451.7" y="200" width="10" height="10"/>
			<rect x="461.7" y="200" width="10" height="10"/>
			<rect x="511.7" y="200" width="10" height="10"/>
			<rect x="521.7" y="200" width="10" height="10"/>
			<rect x="571.7" y="200" width="10" height="10"/>
			<rect x="591.7" y="200" width="10" height="10"/>
			<rect x="601.7" y="200" width="10" height="10"/>
			<rect x="631.7" y="200" width="10" height="10"/>
			<rect x="661.7" y="200" width="10" height="10"/>
			<rect x="351.7" y="210" width="10" height="10"/>
			<rect x="371.7" y="210" width="10" height="10"/>
			<rect x="381.7" y="210" width="10" height="10"/>
			<rect x="441.7" y="210" width="10" height="10"/>
			<rect x="451.7" y="210" width="10" height="10"/>
			<rect x="471.7" y="210" width="10" height="10"/>
			<rect x="481.7" y="210" width="10" height="10"/>
			<rect x="501.7" y="210" width="10" height="10"/>
			<rect x="541.7" y="210" width="10" height="10"/>
			<rect x="571.7" y="210" width="10" height="10"/>
			<rect x="581.7" y="210" width="10" height="10"/>
			<rect x="621.7" y="210" width="10" height="10"/>
			<rect x="631.7" y="210" width="10" height="10"/>
			<rect x="641.7" y="210" width="10" height="10"/>
			<rect x="661.7" y="210" width="10" height="10"/>
			<rect x="351.7" y="220" width="10" height="10"/>
			<rect x="371.7" y="220" width="10" height="10"/>
			<rect x="381.7" y="220" width="10" height="10"/>
			<rect x="401.7" y="220" width="10" height="10"/>
			<rect x="411.7" y="220" width="10" height="10"/>
			<rect x="431.7" y="220" width="10" height="10"/>
			<rect x="441.7" y="220" width="10" height="10"/>
			<rect x="481.7" y="220" width="10" height="10"/>
			<rect x="491.7" y="220" width="10" height="10"/>
			<rect x="501.7" y="220" width="10" height="10"/>
			<rect x="511.7" y="220" width="10" height="10"/>
			<rect x="521.7" y="220" width="10" height="10"/>
			<rect x="531.7" y="220" width="10" height="10"/>
			<rect x="551.7" y="220" width="10" height="10"/>
			<rect x="571.7" y="220" width="10" height="10"/>
			<rect x="591.7" y="220" width="10" height="10"/>
			<rect x="641.7" y="220" width="10" height="10"/>
			<rect x="661.7" y="220" width="10" height="10"/>
			<rect x="351.7" y="230" width="10" height="10"/>
			<rect x="381.7" y="230" width="10" height="10"/>
			<rect x="401.7" y="230" width="10" height="10"/>
			<rect x="421.7" y="230" width="10" height="10"/>
			<rect x="431.7" y="230" width="10" height="10"/>
			<rect x="471.7" y="230" width="10" height="10"/>
			<rect x="481.7" y="230" width="10" height="10"/>
			<rect x="511.7" y="230" width="10" height="10"/>
			<rect x="551.7" y="230" width="10" height="10"/>
			<rect x="581.7" y="230" width="10" height="10"/>
			<rect x="601.7" y="230" width="10" height="10"/>
			<rect x="641.7" y="230" width="10" height="10"/>
			<rect x="651.7" y="230" width="10" height="10"/>
			<rect x="351.7" y="240" width="10" height="10"/>
			<rect x="361.7" y="240" width="10" height="10"/>
			<rect x="391.7" y="240" width="10" height="10"/>
			<rect x="411.7" y="240" width="10" height="10"/>
			<rect x="421.7" y="240" width="10" height="10"/>
			<rect x="461.7" y="240" width="10" height="10"/>
			<rect x="471.7" y="240" width="10" height="10"/>
			<rect x="481.7" y="240" width="10" height="10"/>
			<rect x="501.7" y="240" width="10" height="10"/>
			<rect x="511.7" y="240" width="10" height="10"/>
			<rect x="531.7" y="240" width="10" height="10"/>
			<rect x="551.7" y="240" width="10" height="10"/>
			<rect x="591.7" y="240" width="10" height="10"/>
			<rect x="601.7" y="240" width="10" height="10"/>
			<rect x="611.7" y="240" width="10" height="10"/>
			<rect x="621.7" y="240" width="10" height="10"/>
			<rect x="631.7" y="240" width="10" height="10"/>
			<rect x="661.7" y="240" width="10" height="10"/>
			<rect x="431.7" y="250" width="10" height="10"/>
			<rect x="501.7" y="250" width="10" height="10"/>
			<rect x="511.7" y="250" width="10" height="10"/>
			<rect x="521.7" y="250" width="10" height="10"/>
			<rect x="531.7" y="250" width="10" height="10"/>
			<rect x="541.7" y="250" width="10" height="10"/>
			<rect x="591.7" y="250" width="10" height="10"/>
			<rect x="631.7" y="250" width="10" height="10"/>
			<rect x="651.7" y="250" width="10" height="10"/>
			<rect x="671.7" y="250" width="10" height="10"/>
			<rect x="431.7" y="260" width="10" height="10"/>
			<rect x="461.7" y="260" width="10" height="10"/>
			<rect x="471.7" y="260" width="10" height="10"/>
			<rect x="501.7" y="260" width="10" height="10"/>
			<rect x="521.7" y="260" width="10" height="10"/>
			<rect x="551.7" y="260" width="10" height="10"/>
			<rect x="561.7" y="260" width="10" height="10"/>
			<rect x="571.7" y="260" width="10" height="10"/>
			<rect x="581.7" y="260" width="10" height="10"/>
			<rect x="591.7" y="260" width="10" height="10"/>
			<rect x="611.7" y="260" width="10" height="10"/>
			<rect x="631.7" y="260" width="10" height="10"/>
			<rect x="661.7" y="260" width="10" height="10"/>
			<rect x="431.7" y="270" width="10" height="10"/>
			<rect x="461.7" y="270" width="10" height="10"/>
			<rect x="551.7" y="270" width="10" height="10"/>
			<rect x="591.7" y="270" width="10" height="10"/>
			<rect x="631.7" y="270" width="10" height="10"/>
			<rect x="641.7" y="270" width="10" height="10"/>
			<rect x="651.7" y="270" width="10" height="10"/>
			<rect x="671.7" y="270" width="10" height="10"/>
			<rect x="441.7" y="280" width="10" height="10"/>
			<rect x="461.7" y="280" width="10" height="10"/>
			<rect x="501.7" y="280" width="10" height="10"/>
			<rect x="521.7" y="280" width="10" height="10"/>
			<rect x="571.7" y="280" width="10" height="10"/>
			<rect x="591.7" y="280" width="10" height="10"/>
			<rect x="601.7" y="280" width="10" height="10"/>
			<rect x="611.7" y="280" width="10" height="10"/>
			<rect x="621.7" y="280" width="10" height="10"/>
			<rect x="631.7" y="280" width="10" height="10"/>
			<rect x="661.7" y="280" width="10" height="10"/>
			<rect x="671.7" y="280" width="10" height="10"/>
			<rect x="441.7" y="290" width="10" height="10"/>
			<rect x="451.7" y="290" width="10" height="10"/>
			<rect x="471.7" y="290" width="10" height="10"/>
			<rect x="481.7" y="290" width="10" height="10"/>
			<rect x="491.7" y="290" width="10" height="10"/>
			<rect x="501.7" y="290" width="10" height="10"/>
			<rect x="511.7" y="290" width="10" height="10"/>
			<rect x="521.7" y="290" width="10" height="10"/>
			<rect x="531.7" y="290" width="10" height="10"/>
			<rect x="541.7" y="290" width="10" height="10"/>
			<rect x="551.7" y="290" width="10" height="10"/>
			<rect x="561.7" y="290" width="10" height="10"/>
			<rect x="581.7" y="290" width="10" height="10"/>
			<rect x="591.7" y="290" width="10" height="10"/>
			<rect x="631.7" y="290" width="10" height="10"/>
			<rect x="641.7" y="290" width="10" height="10"/>
			<rect x="651.7" y="290" width="10" height="10"/>
			<rect x="661.7" y="290" width="10" height="10"/>
			<rect x="671.7" y="290" width="10" height="10"/>
			<rect x="441.7" y="300" width="10" height="10"/>
			<rect x="451.7" y="300" width="10" height="10"/>
			<rect x="461.7" y="300" width="10" height="10"/>
			<rect x="501.7" y="300" width="10" height="10"/>
			<rect x="511.7" y="300" width="10" height="10"/>
			<rect x="521.7" y="300" width="10" height="10"/>
			<rect x="531.7" y="300" width="10" height="10"/>
			<rect x="541.7" y="300" width="10" height="10"/>
			<rect x="551.7" y="300" width="10" height="10"/>
			<rect x="561.7" y="300" width="10" height="10"/>
			<rect x="571.7" y="300" width="10" height="10"/>
			<rect x="581.7" y="300" width="10" height="10"/>
			<rect x="591.7" y="300" width="10" height="10"/>
			<rect x="631.7" y="300" width="10" height="10"/>
			<rect x="651.7" y="300" width="10" height="10"/>
			<rect x="661.7" y="300" width="10" height="10"/>
			<rect x="671.7" y="300" width="10" height="10"/>
			<rect x="431.7" y="310" width="10" height="10"/>
			<rect x="451.7" y="310" width="10" height="10"/>
			<rect x="471.7" y="310" width="10" height="10"/>
			<rect x="481.7" y="310" width="10" height="10"/>
			<rect x="501.7" y="310" width="10" height="10"/>
			<rect x="511.7" y="310" width="10" height="10"/>
			<rect x="541.7" y="310" width="10" height="10"/>
			<rect x="571.7" y="310" width="10" height="10"/>
			<rect x="581.7" y="310" width="10" height="10"/>
			<rect x="631.7" y="310" width="10" height="10"/>
			<rect x="641.7" y="310" width="10" height="10"/>
			<rect x="651.7" y="310" width="10" height="10"/>
			<rect x="431.7" y="320" width="10" height="10"/>
			<rect x="441.7" y="320" width="10" height="10"/>
			<rect x="451.7" y="320" width="10" height="10"/>
			<rect x="471.7" y="320" width="10" height="10"/>
			<rect x="491.7" y="320" width="10" height="10"/>
			<rect x="521.7" y="320" width="10" height="10"/>
			<rect x="551.7" y="320" width="10" height="10"/>
			<rect x="571.7" y="320" width="10" height="10"/>
			<rect x="591.7" y="320" width="10" height="10"/>
			<rect x="611.7" y="320" width="10" height="10"/>
			<rect x="631.7" y="320" width="10" height="10"/>
			<rect x="661.7" y="320" width="10" height="10"/>
		</g>
		<g>
			<path d="M351.7,0v70h70V0H351.7z M411.7,60h-50V10h50V60z"/>
		</g>
		<g>
			<rect x="371.7" y="20" width="30" height="30"/>
		</g>
		<g>
			<path d="M351.7,260v70h70v-70H351.7z M411.7,320h-50v-50h50V320z"/>
		</g>
		<g>
			<rect x="371.7" y="280" width="30" height="30"/>
		</g>
		<g>
			<path d="M611.7,0v70h70V0H611.7z M671.7,60h-50V10h50V60z"/>
		</g>
		<g>
			<rect x="631.7" y="20" width="30" height="30"/>
		</g>
	</g>
</g>
<path class="st1" d="M140.5-100.2h49c3.6,0,6.5-2.9,6.5-6.5v-49c0-3.6-2.9-6.5-6.5-6.5h-49c-3.6,0-6.5,2.9-6.5,6.5v49
	C134-103.1,136.9-100.2,140.5-100.2z"/>
<path class="st2" d="M249.5-108.2L249.5-108.2c17.1,0,31-13.9,31-31v0c0-17.1-13.9-31-31-31h0c-17.1,0-31,13.9-31,31v0
	C218.6-122.1,232.4-108.2,249.5-108.2z"/>
</svg>
